%TF.GenerationSoftware,KiCad,Pcbnew,8.0.3*%
%TF.CreationDate,2024-09-04T14:49:45-07:00*%
%TF.ProjectId,BusinessCard,42757369-6e65-4737-9343-6172642e6b69,rev?*%
%TF.SameCoordinates,Original*%
%TF.FileFunction,Legend,Top*%
%TF.FilePolarity,Positive*%
%FSLAX46Y46*%
G04 Gerber Fmt 4.6, Leading zero omitted, Abs format (unit mm)*
G04 Created by KiCad (PCBNEW 8.0.3) date 2024-09-04 14:49:45*
%MOMM*%
%LPD*%
G01*
G04 APERTURE LIST*
G04 Aperture macros list*
%AMRoundRect*
0 Rectangle with rounded corners*
0 $1 Rounding radius*
0 $2 $3 $4 $5 $6 $7 $8 $9 X,Y pos of 4 corners*
0 Add a 4 corners polygon primitive as box body*
4,1,4,$2,$3,$4,$5,$6,$7,$8,$9,$2,$3,0*
0 Add four circle primitives for the rounded corners*
1,1,$1+$1,$2,$3*
1,1,$1+$1,$4,$5*
1,1,$1+$1,$6,$7*
1,1,$1+$1,$8,$9*
0 Add four rect primitives between the rounded corners*
20,1,$1+$1,$2,$3,$4,$5,0*
20,1,$1+$1,$4,$5,$6,$7,0*
20,1,$1+$1,$6,$7,$8,$9,0*
20,1,$1+$1,$8,$9,$2,$3,0*%
%AMHorizOval*
0 Thick line with rounded ends*
0 $1 width*
0 $2 $3 position (X,Y) of the first rounded end (center of the circle)*
0 $4 $5 position (X,Y) of the second rounded end (center of the circle)*
0 Add line between two ends*
20,1,$1,$2,$3,$4,$5,0*
0 Add two circle primitives to create the rounded ends*
1,1,$1,$2,$3*
1,1,$1,$4,$5*%
%AMRotRect*
0 Rectangle, with rotation*
0 The origin of the aperture is its center*
0 $1 length*
0 $2 width*
0 $3 Rotation angle, in degrees counterclockwise*
0 Add horizontal line*
21,1,$1,$2,0,0,$3*%
G04 Aperture macros list end*
%ADD10C,0.150000*%
%ADD11C,0.120000*%
%ADD12C,0.152400*%
%ADD13RotRect,1.400000X1.200000X135.000000*%
%ADD14RoundRect,0.100000X0.130000X0.100000X-0.130000X0.100000X-0.130000X-0.100000X0.130000X-0.100000X0*%
%ADD15RoundRect,0.100000X0.021213X0.162635X-0.162635X-0.021213X-0.021213X-0.162635X0.162635X0.021213X0*%
%ADD16RoundRect,0.100000X0.100000X-0.130000X0.100000X0.130000X-0.100000X0.130000X-0.100000X-0.130000X0*%
%ADD17RoundRect,0.100000X-0.162635X0.021213X0.021213X-0.162635X0.162635X-0.021213X-0.021213X0.162635X0*%
%ADD18RoundRect,0.100000X-0.130000X-0.100000X0.130000X-0.100000X0.130000X0.100000X-0.130000X0.100000X0*%
%ADD19R,0.558800X1.460500*%
%ADD20RoundRect,0.218750X0.256250X-0.218750X0.256250X0.218750X-0.256250X0.218750X-0.256250X-0.218750X0*%
%ADD21RoundRect,0.100000X-0.021213X-0.162635X0.162635X0.021213X0.021213X0.162635X-0.162635X-0.021213X0*%
%ADD22C,1.100000*%
%ADD23R,2.500000X1.100000*%
%ADD24O,3.500000X1.900000*%
%ADD25HorizOval,0.200000X-0.212132X0.212132X0.212132X-0.212132X0*%
%ADD26HorizOval,0.200000X0.212132X0.212132X-0.212132X-0.212132X0*%
%ADD27RotRect,6.840000X6.840000X135.000000*%
%ADD28RoundRect,0.100000X0.162635X-0.021213X-0.021213X0.162635X-0.162635X0.021213X0.021213X-0.162635X0*%
%ADD29RoundRect,0.150000X-0.150000X0.512500X-0.150000X-0.512500X0.150000X-0.512500X0.150000X0.512500X0*%
%ADD30RoundRect,0.100000X-0.100000X0.130000X-0.100000X-0.130000X0.100000X-0.130000X0.100000X0.130000X0*%
G04 APERTURE END LIST*
D10*
X218886696Y-100390757D02*
X219088726Y-100592787D01*
X218523041Y-100309944D02*
X218886696Y-100390757D01*
X218886696Y-100390757D02*
X218805884Y-100027102D01*
X219593803Y-100087711D02*
X219351366Y-100330147D01*
X219472584Y-100208929D02*
X219048320Y-99784665D01*
X219048320Y-99784665D02*
X219068523Y-99885680D01*
X219068523Y-99885680D02*
X219068523Y-99966492D01*
X219068523Y-99966492D02*
X219048320Y-100027101D01*
X197895002Y-109742628D02*
X197866430Y-109771200D01*
X197866430Y-109771200D02*
X197780716Y-109799771D01*
X197780716Y-109799771D02*
X197723573Y-109799771D01*
X197723573Y-109799771D02*
X197637859Y-109771200D01*
X197637859Y-109771200D02*
X197580716Y-109714057D01*
X197580716Y-109714057D02*
X197552145Y-109656914D01*
X197552145Y-109656914D02*
X197523573Y-109542628D01*
X197523573Y-109542628D02*
X197523573Y-109456914D01*
X197523573Y-109456914D02*
X197552145Y-109342628D01*
X197552145Y-109342628D02*
X197580716Y-109285485D01*
X197580716Y-109285485D02*
X197637859Y-109228342D01*
X197637859Y-109228342D02*
X197723573Y-109199771D01*
X197723573Y-109199771D02*
X197780716Y-109199771D01*
X197780716Y-109199771D02*
X197866430Y-109228342D01*
X197866430Y-109228342D02*
X197895002Y-109256914D01*
X198466430Y-109799771D02*
X198123573Y-109799771D01*
X198295002Y-109799771D02*
X198295002Y-109199771D01*
X198295002Y-109199771D02*
X198237859Y-109285485D01*
X198237859Y-109285485D02*
X198180716Y-109342628D01*
X198180716Y-109342628D02*
X198123573Y-109371200D01*
X219877609Y-113823092D02*
X219877609Y-113863498D01*
X219877609Y-113863498D02*
X219837203Y-113944310D01*
X219837203Y-113944310D02*
X219796797Y-113984717D01*
X219796797Y-113984717D02*
X219715985Y-114025123D01*
X219715985Y-114025123D02*
X219635173Y-114025123D01*
X219635173Y-114025123D02*
X219574563Y-114004920D01*
X219574563Y-114004920D02*
X219473548Y-113944310D01*
X219473548Y-113944310D02*
X219412939Y-113883701D01*
X219412939Y-113883701D02*
X219352330Y-113782686D01*
X219352330Y-113782686D02*
X219332127Y-113722077D01*
X219332127Y-113722077D02*
X219332127Y-113641265D01*
X219332127Y-113641265D02*
X219372533Y-113560452D01*
X219372533Y-113560452D02*
X219412939Y-113520046D01*
X219412939Y-113520046D02*
X219493751Y-113479640D01*
X219493751Y-113479640D02*
X219534157Y-113479640D01*
X220322076Y-113459437D02*
X220079640Y-113701874D01*
X220200858Y-113580655D02*
X219776594Y-113156391D01*
X219776594Y-113156391D02*
X219796797Y-113257407D01*
X219796797Y-113257407D02*
X219796797Y-113338219D01*
X219796797Y-113338219D02*
X219776594Y-113398828D01*
X220402889Y-112812939D02*
X220685731Y-113095782D01*
X220140249Y-112752330D02*
X220342280Y-113156391D01*
X220342280Y-113156391D02*
X220604919Y-112893751D01*
X197769771Y-103199999D02*
X197769771Y-103485713D01*
X197769771Y-103485713D02*
X197169771Y-103485713D01*
X197769771Y-102685714D02*
X197769771Y-103028571D01*
X197769771Y-102857142D02*
X197169771Y-102857142D01*
X197169771Y-102857142D02*
X197255485Y-102914285D01*
X197255485Y-102914285D02*
X197312628Y-102971428D01*
X197312628Y-102971428D02*
X197341200Y-103028571D01*
X235426907Y-113877609D02*
X235386501Y-113877609D01*
X235386501Y-113877609D02*
X235305689Y-113837203D01*
X235305689Y-113837203D02*
X235265282Y-113796797D01*
X235265282Y-113796797D02*
X235224876Y-113715985D01*
X235224876Y-113715985D02*
X235224876Y-113635173D01*
X235224876Y-113635173D02*
X235245079Y-113574563D01*
X235245079Y-113574563D02*
X235305689Y-113473548D01*
X235305689Y-113473548D02*
X235366298Y-113412939D01*
X235366298Y-113412939D02*
X235467313Y-113352330D01*
X235467313Y-113352330D02*
X235527922Y-113332127D01*
X235527922Y-113332127D02*
X235608734Y-113332127D01*
X235608734Y-113332127D02*
X235689547Y-113372533D01*
X235689547Y-113372533D02*
X235729953Y-113412939D01*
X235729953Y-113412939D02*
X235770359Y-113493751D01*
X235770359Y-113493751D02*
X235770359Y-113534157D01*
X235790562Y-114322076D02*
X235548125Y-114079640D01*
X235669344Y-114200858D02*
X236093608Y-113776594D01*
X236093608Y-113776594D02*
X235992592Y-113796797D01*
X235992592Y-113796797D02*
X235911780Y-113796797D01*
X235911780Y-113796797D02*
X235851171Y-113776594D01*
X236336044Y-114099843D02*
X236376451Y-114099843D01*
X236376451Y-114099843D02*
X236437060Y-114120046D01*
X236437060Y-114120046D02*
X236538075Y-114221061D01*
X236538075Y-114221061D02*
X236558278Y-114281670D01*
X236558278Y-114281670D02*
X236558278Y-114322077D01*
X236558278Y-114322077D02*
X236538075Y-114382686D01*
X236538075Y-114382686D02*
X236497669Y-114423092D01*
X236497669Y-114423092D02*
X236416857Y-114463498D01*
X236416857Y-114463498D02*
X235931983Y-114463498D01*
X235931983Y-114463498D02*
X236194623Y-114726138D01*
X203362628Y-107299999D02*
X203391200Y-107328571D01*
X203391200Y-107328571D02*
X203419771Y-107414285D01*
X203419771Y-107414285D02*
X203419771Y-107471428D01*
X203419771Y-107471428D02*
X203391200Y-107557142D01*
X203391200Y-107557142D02*
X203334057Y-107614285D01*
X203334057Y-107614285D02*
X203276914Y-107642856D01*
X203276914Y-107642856D02*
X203162628Y-107671428D01*
X203162628Y-107671428D02*
X203076914Y-107671428D01*
X203076914Y-107671428D02*
X202962628Y-107642856D01*
X202962628Y-107642856D02*
X202905485Y-107614285D01*
X202905485Y-107614285D02*
X202848342Y-107557142D01*
X202848342Y-107557142D02*
X202819771Y-107471428D01*
X202819771Y-107471428D02*
X202819771Y-107414285D01*
X202819771Y-107414285D02*
X202848342Y-107328571D01*
X202848342Y-107328571D02*
X202876914Y-107299999D01*
X202876914Y-107071428D02*
X202848342Y-107042856D01*
X202848342Y-107042856D02*
X202819771Y-106985714D01*
X202819771Y-106985714D02*
X202819771Y-106842856D01*
X202819771Y-106842856D02*
X202848342Y-106785714D01*
X202848342Y-106785714D02*
X202876914Y-106757142D01*
X202876914Y-106757142D02*
X202934057Y-106728571D01*
X202934057Y-106728571D02*
X202991200Y-106728571D01*
X202991200Y-106728571D02*
X203076914Y-106757142D01*
X203076914Y-106757142D02*
X203419771Y-107099999D01*
X203419771Y-107099999D02*
X203419771Y-106728571D01*
X234512628Y-108835714D02*
X234541200Y-108864286D01*
X234541200Y-108864286D02*
X234569771Y-108950000D01*
X234569771Y-108950000D02*
X234569771Y-109007143D01*
X234569771Y-109007143D02*
X234541200Y-109092857D01*
X234541200Y-109092857D02*
X234484057Y-109150000D01*
X234484057Y-109150000D02*
X234426914Y-109178571D01*
X234426914Y-109178571D02*
X234312628Y-109207143D01*
X234312628Y-109207143D02*
X234226914Y-109207143D01*
X234226914Y-109207143D02*
X234112628Y-109178571D01*
X234112628Y-109178571D02*
X234055485Y-109150000D01*
X234055485Y-109150000D02*
X233998342Y-109092857D01*
X233998342Y-109092857D02*
X233969771Y-109007143D01*
X233969771Y-109007143D02*
X233969771Y-108950000D01*
X233969771Y-108950000D02*
X233998342Y-108864286D01*
X233998342Y-108864286D02*
X234026914Y-108835714D01*
X234569771Y-108264286D02*
X234569771Y-108607143D01*
X234569771Y-108435714D02*
X233969771Y-108435714D01*
X233969771Y-108435714D02*
X234055485Y-108492857D01*
X234055485Y-108492857D02*
X234112628Y-108550000D01*
X234112628Y-108550000D02*
X234141200Y-108607143D01*
X233969771Y-107721428D02*
X233969771Y-108007142D01*
X233969771Y-108007142D02*
X234255485Y-108035714D01*
X234255485Y-108035714D02*
X234226914Y-108007142D01*
X234226914Y-108007142D02*
X234198342Y-107950000D01*
X234198342Y-107950000D02*
X234198342Y-107807142D01*
X234198342Y-107807142D02*
X234226914Y-107750000D01*
X234226914Y-107750000D02*
X234255485Y-107721428D01*
X234255485Y-107721428D02*
X234312628Y-107692857D01*
X234312628Y-107692857D02*
X234455485Y-107692857D01*
X234455485Y-107692857D02*
X234512628Y-107721428D01*
X234512628Y-107721428D02*
X234541200Y-107750000D01*
X234541200Y-107750000D02*
X234569771Y-107807142D01*
X234569771Y-107807142D02*
X234569771Y-107950000D01*
X234569771Y-107950000D02*
X234541200Y-108007142D01*
X234541200Y-108007142D02*
X234512628Y-108035714D01*
X241880228Y-108442857D02*
X241394514Y-108442857D01*
X241394514Y-108442857D02*
X241337371Y-108471428D01*
X241337371Y-108471428D02*
X241308800Y-108500000D01*
X241308800Y-108500000D02*
X241280228Y-108557142D01*
X241280228Y-108557142D02*
X241280228Y-108671428D01*
X241280228Y-108671428D02*
X241308800Y-108728571D01*
X241308800Y-108728571D02*
X241337371Y-108757142D01*
X241337371Y-108757142D02*
X241394514Y-108785714D01*
X241394514Y-108785714D02*
X241880228Y-108785714D01*
X241880228Y-109328571D02*
X241880228Y-109214285D01*
X241880228Y-109214285D02*
X241851657Y-109157142D01*
X241851657Y-109157142D02*
X241823085Y-109128571D01*
X241823085Y-109128571D02*
X241737371Y-109071428D01*
X241737371Y-109071428D02*
X241623085Y-109042856D01*
X241623085Y-109042856D02*
X241394514Y-109042856D01*
X241394514Y-109042856D02*
X241337371Y-109071428D01*
X241337371Y-109071428D02*
X241308800Y-109099999D01*
X241308800Y-109099999D02*
X241280228Y-109157142D01*
X241280228Y-109157142D02*
X241280228Y-109271428D01*
X241280228Y-109271428D02*
X241308800Y-109328571D01*
X241308800Y-109328571D02*
X241337371Y-109357142D01*
X241337371Y-109357142D02*
X241394514Y-109385713D01*
X241394514Y-109385713D02*
X241537371Y-109385713D01*
X241537371Y-109385713D02*
X241594514Y-109357142D01*
X241594514Y-109357142D02*
X241623085Y-109328571D01*
X241623085Y-109328571D02*
X241651657Y-109271428D01*
X241651657Y-109271428D02*
X241651657Y-109157142D01*
X241651657Y-109157142D02*
X241623085Y-109099999D01*
X241623085Y-109099999D02*
X241594514Y-109071428D01*
X241594514Y-109071428D02*
X241537371Y-109042856D01*
X242451980Y-105921850D02*
X242213885Y-105921850D01*
X242309123Y-105683755D02*
X242213885Y-105921850D01*
X242213885Y-105921850D02*
X242309123Y-106159945D01*
X242023409Y-105778993D02*
X242213885Y-105921850D01*
X242213885Y-105921850D02*
X242023409Y-106064707D01*
X241361619Y-105921849D02*
X241599714Y-105921849D01*
X241504476Y-106159944D02*
X241599714Y-105921849D01*
X241599714Y-105921849D02*
X241504476Y-105683754D01*
X241790190Y-106064706D02*
X241599714Y-105921849D01*
X241599714Y-105921849D02*
X241790190Y-105778992D01*
X194800000Y-114155485D02*
X194600000Y-114155485D01*
X194600000Y-114469771D02*
X194600000Y-113869771D01*
X194600000Y-113869771D02*
X194885714Y-113869771D01*
X195428571Y-114469771D02*
X195085714Y-114469771D01*
X195257143Y-114469771D02*
X195257143Y-113869771D01*
X195257143Y-113869771D02*
X195200000Y-113955485D01*
X195200000Y-113955485D02*
X195142857Y-114012628D01*
X195142857Y-114012628D02*
X195085714Y-114041200D01*
X206269771Y-103279999D02*
X206269771Y-103565713D01*
X206269771Y-103565713D02*
X205669771Y-103565713D01*
X205726914Y-103108571D02*
X205698342Y-103079999D01*
X205698342Y-103079999D02*
X205669771Y-103022857D01*
X205669771Y-103022857D02*
X205669771Y-102879999D01*
X205669771Y-102879999D02*
X205698342Y-102822857D01*
X205698342Y-102822857D02*
X205726914Y-102794285D01*
X205726914Y-102794285D02*
X205784057Y-102765714D01*
X205784057Y-102765714D02*
X205841200Y-102765714D01*
X205841200Y-102765714D02*
X205926914Y-102794285D01*
X205926914Y-102794285D02*
X206269771Y-103137142D01*
X206269771Y-103137142D02*
X206269771Y-102765714D01*
X218537178Y-111678599D02*
X218537178Y-111719005D01*
X218537178Y-111719005D02*
X218496772Y-111799817D01*
X218496772Y-111799817D02*
X218456366Y-111840223D01*
X218456366Y-111840223D02*
X218375554Y-111880630D01*
X218375554Y-111880630D02*
X218294742Y-111880630D01*
X218294742Y-111880630D02*
X218234132Y-111860427D01*
X218234132Y-111860427D02*
X218133117Y-111799817D01*
X218133117Y-111799817D02*
X218072508Y-111739208D01*
X218072508Y-111739208D02*
X218011899Y-111638193D01*
X218011899Y-111638193D02*
X217991696Y-111577584D01*
X217991696Y-111577584D02*
X217991696Y-111496772D01*
X217991696Y-111496772D02*
X218032102Y-111415959D01*
X218032102Y-111415959D02*
X218072508Y-111375553D01*
X218072508Y-111375553D02*
X218153320Y-111335147D01*
X218153320Y-111335147D02*
X218193726Y-111335147D01*
X218779615Y-111516975D02*
X218860427Y-111436162D01*
X218860427Y-111436162D02*
X218880630Y-111375553D01*
X218880630Y-111375553D02*
X218880630Y-111335147D01*
X218880630Y-111335147D02*
X218860427Y-111234132D01*
X218860427Y-111234132D02*
X218799818Y-111133117D01*
X218799818Y-111133117D02*
X218638193Y-110971492D01*
X218638193Y-110971492D02*
X218577584Y-110951289D01*
X218577584Y-110951289D02*
X218537178Y-110951289D01*
X218537178Y-110951289D02*
X218476569Y-110971492D01*
X218476569Y-110971492D02*
X218395757Y-111052305D01*
X218395757Y-111052305D02*
X218375554Y-111112914D01*
X218375554Y-111112914D02*
X218375554Y-111153320D01*
X218375554Y-111153320D02*
X218395757Y-111213929D01*
X218395757Y-111213929D02*
X218496772Y-111314944D01*
X218496772Y-111314944D02*
X218557381Y-111335147D01*
X218557381Y-111335147D02*
X218597787Y-111335147D01*
X218597787Y-111335147D02*
X218658396Y-111314944D01*
X218658396Y-111314944D02*
X218739209Y-111234132D01*
X218739209Y-111234132D02*
X218759412Y-111173523D01*
X218759412Y-111173523D02*
X218759412Y-111133117D01*
X218759412Y-111133117D02*
X218739209Y-111072508D01*
X214419771Y-102899999D02*
X214419771Y-103185713D01*
X214419771Y-103185713D02*
X213819771Y-103185713D01*
X213819771Y-102757142D02*
X213819771Y-102385714D01*
X213819771Y-102385714D02*
X214048342Y-102585714D01*
X214048342Y-102585714D02*
X214048342Y-102499999D01*
X214048342Y-102499999D02*
X214076914Y-102442857D01*
X214076914Y-102442857D02*
X214105485Y-102414285D01*
X214105485Y-102414285D02*
X214162628Y-102385714D01*
X214162628Y-102385714D02*
X214305485Y-102385714D01*
X214305485Y-102385714D02*
X214362628Y-102414285D01*
X214362628Y-102414285D02*
X214391200Y-102442857D01*
X214391200Y-102442857D02*
X214419771Y-102499999D01*
X214419771Y-102499999D02*
X214419771Y-102671428D01*
X214419771Y-102671428D02*
X214391200Y-102728571D01*
X214391200Y-102728571D02*
X214362628Y-102757142D01*
X206650000Y-109762628D02*
X206621428Y-109791200D01*
X206621428Y-109791200D02*
X206535714Y-109819771D01*
X206535714Y-109819771D02*
X206478571Y-109819771D01*
X206478571Y-109819771D02*
X206392857Y-109791200D01*
X206392857Y-109791200D02*
X206335714Y-109734057D01*
X206335714Y-109734057D02*
X206307143Y-109676914D01*
X206307143Y-109676914D02*
X206278571Y-109562628D01*
X206278571Y-109562628D02*
X206278571Y-109476914D01*
X206278571Y-109476914D02*
X206307143Y-109362628D01*
X206307143Y-109362628D02*
X206335714Y-109305485D01*
X206335714Y-109305485D02*
X206392857Y-109248342D01*
X206392857Y-109248342D02*
X206478571Y-109219771D01*
X206478571Y-109219771D02*
X206535714Y-109219771D01*
X206535714Y-109219771D02*
X206621428Y-109248342D01*
X206621428Y-109248342D02*
X206650000Y-109276914D01*
X206850000Y-109219771D02*
X207221428Y-109219771D01*
X207221428Y-109219771D02*
X207021428Y-109448342D01*
X207021428Y-109448342D02*
X207107143Y-109448342D01*
X207107143Y-109448342D02*
X207164286Y-109476914D01*
X207164286Y-109476914D02*
X207192857Y-109505485D01*
X207192857Y-109505485D02*
X207221428Y-109562628D01*
X207221428Y-109562628D02*
X207221428Y-109705485D01*
X207221428Y-109705485D02*
X207192857Y-109762628D01*
X207192857Y-109762628D02*
X207164286Y-109791200D01*
X207164286Y-109791200D02*
X207107143Y-109819771D01*
X207107143Y-109819771D02*
X206935714Y-109819771D01*
X206935714Y-109819771D02*
X206878571Y-109791200D01*
X206878571Y-109791200D02*
X206850000Y-109762628D01*
X215330000Y-109770818D02*
X215301428Y-109799390D01*
X215301428Y-109799390D02*
X215215714Y-109827961D01*
X215215714Y-109827961D02*
X215158571Y-109827961D01*
X215158571Y-109827961D02*
X215072857Y-109799390D01*
X215072857Y-109799390D02*
X215015714Y-109742247D01*
X215015714Y-109742247D02*
X214987143Y-109685104D01*
X214987143Y-109685104D02*
X214958571Y-109570818D01*
X214958571Y-109570818D02*
X214958571Y-109485104D01*
X214958571Y-109485104D02*
X214987143Y-109370818D01*
X214987143Y-109370818D02*
X215015714Y-109313675D01*
X215015714Y-109313675D02*
X215072857Y-109256532D01*
X215072857Y-109256532D02*
X215158571Y-109227961D01*
X215158571Y-109227961D02*
X215215714Y-109227961D01*
X215215714Y-109227961D02*
X215301428Y-109256532D01*
X215301428Y-109256532D02*
X215330000Y-109285104D01*
X215872857Y-109227961D02*
X215587143Y-109227961D01*
X215587143Y-109227961D02*
X215558571Y-109513675D01*
X215558571Y-109513675D02*
X215587143Y-109485104D01*
X215587143Y-109485104D02*
X215644286Y-109456532D01*
X215644286Y-109456532D02*
X215787143Y-109456532D01*
X215787143Y-109456532D02*
X215844286Y-109485104D01*
X215844286Y-109485104D02*
X215872857Y-109513675D01*
X215872857Y-109513675D02*
X215901428Y-109570818D01*
X215901428Y-109570818D02*
X215901428Y-109713675D01*
X215901428Y-109713675D02*
X215872857Y-109770818D01*
X215872857Y-109770818D02*
X215844286Y-109799390D01*
X215844286Y-109799390D02*
X215787143Y-109827961D01*
X215787143Y-109827961D02*
X215644286Y-109827961D01*
X215644286Y-109827961D02*
X215587143Y-109799390D01*
X215587143Y-109799390D02*
X215558571Y-109770818D01*
X189499999Y-116669771D02*
X189499999Y-117098342D01*
X189499999Y-117098342D02*
X189471428Y-117184057D01*
X189471428Y-117184057D02*
X189414285Y-117241200D01*
X189414285Y-117241200D02*
X189328571Y-117269771D01*
X189328571Y-117269771D02*
X189271428Y-117269771D01*
X190099999Y-117269771D02*
X189757142Y-117269771D01*
X189928571Y-117269771D02*
X189928571Y-116669771D01*
X189928571Y-116669771D02*
X189871428Y-116755485D01*
X189871428Y-116755485D02*
X189814285Y-116812628D01*
X189814285Y-116812628D02*
X189757142Y-116841200D01*
X231977609Y-105023092D02*
X231977609Y-105063498D01*
X231977609Y-105063498D02*
X231937203Y-105144310D01*
X231937203Y-105144310D02*
X231896797Y-105184717D01*
X231896797Y-105184717D02*
X231815985Y-105225123D01*
X231815985Y-105225123D02*
X231735173Y-105225123D01*
X231735173Y-105225123D02*
X231674563Y-105204920D01*
X231674563Y-105204920D02*
X231573548Y-105144310D01*
X231573548Y-105144310D02*
X231512939Y-105083701D01*
X231512939Y-105083701D02*
X231452330Y-104982686D01*
X231452330Y-104982686D02*
X231432127Y-104922077D01*
X231432127Y-104922077D02*
X231432127Y-104841265D01*
X231432127Y-104841265D02*
X231472533Y-104760452D01*
X231472533Y-104760452D02*
X231512939Y-104720046D01*
X231512939Y-104720046D02*
X231593751Y-104679640D01*
X231593751Y-104679640D02*
X231634157Y-104679640D01*
X232422076Y-104659437D02*
X232179640Y-104901874D01*
X232300858Y-104780655D02*
X231876594Y-104356391D01*
X231876594Y-104356391D02*
X231896797Y-104457407D01*
X231896797Y-104457407D02*
X231896797Y-104538219D01*
X231896797Y-104538219D02*
X231876594Y-104598828D01*
X232139234Y-104093751D02*
X232401873Y-103831112D01*
X232401873Y-103831112D02*
X232422077Y-104134158D01*
X232422077Y-104134158D02*
X232482686Y-104073548D01*
X232482686Y-104073548D02*
X232543295Y-104053345D01*
X232543295Y-104053345D02*
X232583701Y-104053345D01*
X232583701Y-104053345D02*
X232644310Y-104073548D01*
X232644310Y-104073548D02*
X232745325Y-104174564D01*
X232745325Y-104174564D02*
X232765528Y-104235173D01*
X232765528Y-104235173D02*
X232765528Y-104275579D01*
X232765528Y-104275579D02*
X232745325Y-104336188D01*
X232745325Y-104336188D02*
X232624107Y-104457406D01*
X232624107Y-104457406D02*
X232563498Y-104477609D01*
X232563498Y-104477609D02*
X232523092Y-104477609D01*
X233277609Y-105373092D02*
X233277609Y-105413498D01*
X233277609Y-105413498D02*
X233237203Y-105494310D01*
X233237203Y-105494310D02*
X233196797Y-105534717D01*
X233196797Y-105534717D02*
X233115985Y-105575123D01*
X233115985Y-105575123D02*
X233035173Y-105575123D01*
X233035173Y-105575123D02*
X232974563Y-105554920D01*
X232974563Y-105554920D02*
X232873548Y-105494310D01*
X232873548Y-105494310D02*
X232812939Y-105433701D01*
X232812939Y-105433701D02*
X232752330Y-105332686D01*
X232752330Y-105332686D02*
X232732127Y-105272077D01*
X232732127Y-105272077D02*
X232732127Y-105191265D01*
X232732127Y-105191265D02*
X232772533Y-105110452D01*
X232772533Y-105110452D02*
X232812939Y-105070046D01*
X232812939Y-105070046D02*
X232893751Y-105029640D01*
X232893751Y-105029640D02*
X232934157Y-105029640D01*
X233722076Y-105009437D02*
X233479640Y-105251874D01*
X233600858Y-105130655D02*
X233176594Y-104706391D01*
X233176594Y-104706391D02*
X233196797Y-104807407D01*
X233196797Y-104807407D02*
X233196797Y-104888219D01*
X233196797Y-104888219D02*
X233176594Y-104948828D01*
X233661467Y-104221518D02*
X233580655Y-104302330D01*
X233580655Y-104302330D02*
X233560452Y-104362939D01*
X233560452Y-104362939D02*
X233560452Y-104403345D01*
X233560452Y-104403345D02*
X233580655Y-104504361D01*
X233580655Y-104504361D02*
X233641264Y-104605376D01*
X233641264Y-104605376D02*
X233802889Y-104767000D01*
X233802889Y-104767000D02*
X233863498Y-104787203D01*
X233863498Y-104787203D02*
X233903904Y-104787203D01*
X233903904Y-104787203D02*
X233964513Y-104767000D01*
X233964513Y-104767000D02*
X234045325Y-104686188D01*
X234045325Y-104686188D02*
X234065528Y-104625579D01*
X234065528Y-104625579D02*
X234065528Y-104585173D01*
X234065528Y-104585173D02*
X234045325Y-104524564D01*
X234045325Y-104524564D02*
X233944310Y-104423548D01*
X233944310Y-104423548D02*
X233883701Y-104403345D01*
X233883701Y-104403345D02*
X233843295Y-104403345D01*
X233843295Y-104403345D02*
X233782686Y-104423548D01*
X233782686Y-104423548D02*
X233701873Y-104504361D01*
X233701873Y-104504361D02*
X233681670Y-104564970D01*
X233681670Y-104564970D02*
X233681670Y-104605376D01*
X233681670Y-104605376D02*
X233701873Y-104665985D01*
X231000000Y-118412628D02*
X230971428Y-118441200D01*
X230971428Y-118441200D02*
X230885714Y-118469771D01*
X230885714Y-118469771D02*
X230828571Y-118469771D01*
X230828571Y-118469771D02*
X230742857Y-118441200D01*
X230742857Y-118441200D02*
X230685714Y-118384057D01*
X230685714Y-118384057D02*
X230657143Y-118326914D01*
X230657143Y-118326914D02*
X230628571Y-118212628D01*
X230628571Y-118212628D02*
X230628571Y-118126914D01*
X230628571Y-118126914D02*
X230657143Y-118012628D01*
X230657143Y-118012628D02*
X230685714Y-117955485D01*
X230685714Y-117955485D02*
X230742857Y-117898342D01*
X230742857Y-117898342D02*
X230828571Y-117869771D01*
X230828571Y-117869771D02*
X230885714Y-117869771D01*
X230885714Y-117869771D02*
X230971428Y-117898342D01*
X230971428Y-117898342D02*
X231000000Y-117926914D01*
X231514286Y-117869771D02*
X231400000Y-117869771D01*
X231400000Y-117869771D02*
X231342857Y-117898342D01*
X231342857Y-117898342D02*
X231314286Y-117926914D01*
X231314286Y-117926914D02*
X231257143Y-118012628D01*
X231257143Y-118012628D02*
X231228571Y-118126914D01*
X231228571Y-118126914D02*
X231228571Y-118355485D01*
X231228571Y-118355485D02*
X231257143Y-118412628D01*
X231257143Y-118412628D02*
X231285714Y-118441200D01*
X231285714Y-118441200D02*
X231342857Y-118469771D01*
X231342857Y-118469771D02*
X231457143Y-118469771D01*
X231457143Y-118469771D02*
X231514286Y-118441200D01*
X231514286Y-118441200D02*
X231542857Y-118412628D01*
X231542857Y-118412628D02*
X231571428Y-118355485D01*
X231571428Y-118355485D02*
X231571428Y-118212628D01*
X231571428Y-118212628D02*
X231542857Y-118155485D01*
X231542857Y-118155485D02*
X231514286Y-118126914D01*
X231514286Y-118126914D02*
X231457143Y-118098342D01*
X231457143Y-118098342D02*
X231342857Y-118098342D01*
X231342857Y-118098342D02*
X231285714Y-118126914D01*
X231285714Y-118126914D02*
X231257143Y-118155485D01*
X231257143Y-118155485D02*
X231228571Y-118212628D01*
X196769771Y-106399642D02*
X197255485Y-106399642D01*
X197255485Y-106399642D02*
X197312628Y-106371071D01*
X197312628Y-106371071D02*
X197341200Y-106342500D01*
X197341200Y-106342500D02*
X197369771Y-106285357D01*
X197369771Y-106285357D02*
X197369771Y-106171071D01*
X197369771Y-106171071D02*
X197341200Y-106113928D01*
X197341200Y-106113928D02*
X197312628Y-106085357D01*
X197312628Y-106085357D02*
X197255485Y-106056785D01*
X197255485Y-106056785D02*
X196769771Y-106056785D01*
X197369771Y-105456786D02*
X197369771Y-105799643D01*
X197369771Y-105628214D02*
X196769771Y-105628214D01*
X196769771Y-105628214D02*
X196855485Y-105685357D01*
X196855485Y-105685357D02*
X196912628Y-105742500D01*
X196912628Y-105742500D02*
X196941200Y-105799643D01*
X209150000Y-109819771D02*
X208950000Y-109534057D01*
X208807143Y-109819771D02*
X208807143Y-109219771D01*
X208807143Y-109219771D02*
X209035714Y-109219771D01*
X209035714Y-109219771D02*
X209092857Y-109248342D01*
X209092857Y-109248342D02*
X209121428Y-109276914D01*
X209121428Y-109276914D02*
X209150000Y-109334057D01*
X209150000Y-109334057D02*
X209150000Y-109419771D01*
X209150000Y-109419771D02*
X209121428Y-109476914D01*
X209121428Y-109476914D02*
X209092857Y-109505485D01*
X209092857Y-109505485D02*
X209035714Y-109534057D01*
X209035714Y-109534057D02*
X208807143Y-109534057D01*
X209692857Y-109219771D02*
X209407143Y-109219771D01*
X209407143Y-109219771D02*
X209378571Y-109505485D01*
X209378571Y-109505485D02*
X209407143Y-109476914D01*
X209407143Y-109476914D02*
X209464286Y-109448342D01*
X209464286Y-109448342D02*
X209607143Y-109448342D01*
X209607143Y-109448342D02*
X209664286Y-109476914D01*
X209664286Y-109476914D02*
X209692857Y-109505485D01*
X209692857Y-109505485D02*
X209721428Y-109562628D01*
X209721428Y-109562628D02*
X209721428Y-109705485D01*
X209721428Y-109705485D02*
X209692857Y-109762628D01*
X209692857Y-109762628D02*
X209664286Y-109791200D01*
X209664286Y-109791200D02*
X209607143Y-109819771D01*
X209607143Y-109819771D02*
X209464286Y-109819771D01*
X209464286Y-109819771D02*
X209407143Y-109791200D01*
X209407143Y-109791200D02*
X209378571Y-109762628D01*
X223777609Y-117523092D02*
X223777609Y-117563498D01*
X223777609Y-117563498D02*
X223737203Y-117644310D01*
X223737203Y-117644310D02*
X223696797Y-117684717D01*
X223696797Y-117684717D02*
X223615985Y-117725123D01*
X223615985Y-117725123D02*
X223535173Y-117725123D01*
X223535173Y-117725123D02*
X223474563Y-117704920D01*
X223474563Y-117704920D02*
X223373548Y-117644310D01*
X223373548Y-117644310D02*
X223312939Y-117583701D01*
X223312939Y-117583701D02*
X223252330Y-117482686D01*
X223252330Y-117482686D02*
X223232127Y-117422077D01*
X223232127Y-117422077D02*
X223232127Y-117341265D01*
X223232127Y-117341265D02*
X223272533Y-117260452D01*
X223272533Y-117260452D02*
X223312939Y-117220046D01*
X223312939Y-117220046D02*
X223393751Y-117179640D01*
X223393751Y-117179640D02*
X223434157Y-117179640D01*
X224222076Y-117159437D02*
X223979640Y-117401874D01*
X224100858Y-117280655D02*
X223676594Y-116856391D01*
X223676594Y-116856391D02*
X223696797Y-116957407D01*
X223696797Y-116957407D02*
X223696797Y-117038219D01*
X223696797Y-117038219D02*
X223676594Y-117098828D01*
X224626138Y-116755376D02*
X224383701Y-116997812D01*
X224504919Y-116876594D02*
X224080655Y-116452330D01*
X224080655Y-116452330D02*
X224100858Y-116553345D01*
X224100858Y-116553345D02*
X224100858Y-116634158D01*
X224100858Y-116634158D02*
X224080655Y-116694767D01*
X224677609Y-101973092D02*
X224677609Y-102013498D01*
X224677609Y-102013498D02*
X224637203Y-102094310D01*
X224637203Y-102094310D02*
X224596797Y-102134717D01*
X224596797Y-102134717D02*
X224515985Y-102175123D01*
X224515985Y-102175123D02*
X224435173Y-102175123D01*
X224435173Y-102175123D02*
X224374563Y-102154920D01*
X224374563Y-102154920D02*
X224273548Y-102094310D01*
X224273548Y-102094310D02*
X224212939Y-102033701D01*
X224212939Y-102033701D02*
X224152330Y-101932686D01*
X224152330Y-101932686D02*
X224132127Y-101872077D01*
X224132127Y-101872077D02*
X224132127Y-101791265D01*
X224132127Y-101791265D02*
X224172533Y-101710452D01*
X224172533Y-101710452D02*
X224212939Y-101670046D01*
X224212939Y-101670046D02*
X224293751Y-101629640D01*
X224293751Y-101629640D02*
X224334157Y-101629640D01*
X225122076Y-101609437D02*
X224879640Y-101851874D01*
X225000858Y-101730655D02*
X224576594Y-101306391D01*
X224576594Y-101306391D02*
X224596797Y-101407407D01*
X224596797Y-101407407D02*
X224596797Y-101488219D01*
X224596797Y-101488219D02*
X224576594Y-101548828D01*
X225122077Y-101124564D02*
X225061467Y-101144767D01*
X225061467Y-101144767D02*
X225021061Y-101144767D01*
X225021061Y-101144767D02*
X224960452Y-101124564D01*
X224960452Y-101124564D02*
X224940249Y-101104361D01*
X224940249Y-101104361D02*
X224920046Y-101043751D01*
X224920046Y-101043751D02*
X224920046Y-101003345D01*
X224920046Y-101003345D02*
X224940249Y-100942736D01*
X224940249Y-100942736D02*
X225021061Y-100861924D01*
X225021061Y-100861924D02*
X225081670Y-100841721D01*
X225081670Y-100841721D02*
X225122077Y-100841721D01*
X225122077Y-100841721D02*
X225182686Y-100861924D01*
X225182686Y-100861924D02*
X225202889Y-100882127D01*
X225202889Y-100882127D02*
X225223092Y-100942736D01*
X225223092Y-100942736D02*
X225223092Y-100983142D01*
X225223092Y-100983142D02*
X225202889Y-101043751D01*
X225202889Y-101043751D02*
X225122077Y-101124564D01*
X225122077Y-101124564D02*
X225101873Y-101185173D01*
X225101873Y-101185173D02*
X225101873Y-101225579D01*
X225101873Y-101225579D02*
X225122077Y-101286188D01*
X225122077Y-101286188D02*
X225202889Y-101367000D01*
X225202889Y-101367000D02*
X225263498Y-101387203D01*
X225263498Y-101387203D02*
X225303904Y-101387203D01*
X225303904Y-101387203D02*
X225364513Y-101367000D01*
X225364513Y-101367000D02*
X225445325Y-101286188D01*
X225445325Y-101286188D02*
X225465528Y-101225579D01*
X225465528Y-101225579D02*
X225465528Y-101185173D01*
X225465528Y-101185173D02*
X225445325Y-101124564D01*
X225445325Y-101124564D02*
X225364513Y-101043751D01*
X225364513Y-101043751D02*
X225303904Y-101023548D01*
X225303904Y-101023548D02*
X225263498Y-101023548D01*
X225263498Y-101023548D02*
X225202889Y-101043751D01*
X223677609Y-106565554D02*
X223677609Y-106605960D01*
X223677609Y-106605960D02*
X223637203Y-106686772D01*
X223637203Y-106686772D02*
X223596797Y-106727179D01*
X223596797Y-106727179D02*
X223515985Y-106767585D01*
X223515985Y-106767585D02*
X223435173Y-106767585D01*
X223435173Y-106767585D02*
X223374563Y-106747382D01*
X223374563Y-106747382D02*
X223273548Y-106686772D01*
X223273548Y-106686772D02*
X223212939Y-106626163D01*
X223212939Y-106626163D02*
X223152330Y-106525148D01*
X223152330Y-106525148D02*
X223132127Y-106464539D01*
X223132127Y-106464539D02*
X223132127Y-106383727D01*
X223132127Y-106383727D02*
X223172533Y-106302914D01*
X223172533Y-106302914D02*
X223212939Y-106262508D01*
X223212939Y-106262508D02*
X223293751Y-106222102D01*
X223293751Y-106222102D02*
X223334157Y-106222102D01*
X224122076Y-106201899D02*
X223879640Y-106444336D01*
X224000858Y-106323117D02*
X223576594Y-105898853D01*
X223576594Y-105898853D02*
X223596797Y-105999869D01*
X223596797Y-105999869D02*
X223596797Y-106080681D01*
X223596797Y-106080681D02*
X223576594Y-106141290D01*
X223839234Y-105636213D02*
X224122077Y-105353371D01*
X224122077Y-105353371D02*
X224364513Y-105959462D01*
X217930000Y-109827961D02*
X217730000Y-109542247D01*
X217587143Y-109827961D02*
X217587143Y-109227961D01*
X217587143Y-109227961D02*
X217815714Y-109227961D01*
X217815714Y-109227961D02*
X217872857Y-109256532D01*
X217872857Y-109256532D02*
X217901428Y-109285104D01*
X217901428Y-109285104D02*
X217930000Y-109342247D01*
X217930000Y-109342247D02*
X217930000Y-109427961D01*
X217930000Y-109427961D02*
X217901428Y-109485104D01*
X217901428Y-109485104D02*
X217872857Y-109513675D01*
X217872857Y-109513675D02*
X217815714Y-109542247D01*
X217815714Y-109542247D02*
X217587143Y-109542247D01*
X218130000Y-109227961D02*
X218530000Y-109227961D01*
X218530000Y-109227961D02*
X218272857Y-109827961D01*
X205469771Y-106457142D02*
X205955485Y-106457142D01*
X205955485Y-106457142D02*
X206012628Y-106428571D01*
X206012628Y-106428571D02*
X206041200Y-106400000D01*
X206041200Y-106400000D02*
X206069771Y-106342857D01*
X206069771Y-106342857D02*
X206069771Y-106228571D01*
X206069771Y-106228571D02*
X206041200Y-106171428D01*
X206041200Y-106171428D02*
X206012628Y-106142857D01*
X206012628Y-106142857D02*
X205955485Y-106114285D01*
X205955485Y-106114285D02*
X205469771Y-106114285D01*
X205526914Y-105857143D02*
X205498342Y-105828571D01*
X205498342Y-105828571D02*
X205469771Y-105771429D01*
X205469771Y-105771429D02*
X205469771Y-105628571D01*
X205469771Y-105628571D02*
X205498342Y-105571429D01*
X205498342Y-105571429D02*
X205526914Y-105542857D01*
X205526914Y-105542857D02*
X205584057Y-105514286D01*
X205584057Y-105514286D02*
X205641200Y-105514286D01*
X205641200Y-105514286D02*
X205726914Y-105542857D01*
X205726914Y-105542857D02*
X206069771Y-105885714D01*
X206069771Y-105885714D02*
X206069771Y-105514286D01*
X234850000Y-111119771D02*
X234650000Y-110834057D01*
X234507143Y-111119771D02*
X234507143Y-110519771D01*
X234507143Y-110519771D02*
X234735714Y-110519771D01*
X234735714Y-110519771D02*
X234792857Y-110548342D01*
X234792857Y-110548342D02*
X234821428Y-110576914D01*
X234821428Y-110576914D02*
X234850000Y-110634057D01*
X234850000Y-110634057D02*
X234850000Y-110719771D01*
X234850000Y-110719771D02*
X234821428Y-110776914D01*
X234821428Y-110776914D02*
X234792857Y-110805485D01*
X234792857Y-110805485D02*
X234735714Y-110834057D01*
X234735714Y-110834057D02*
X234507143Y-110834057D01*
X235421428Y-111119771D02*
X235078571Y-111119771D01*
X235250000Y-111119771D02*
X235250000Y-110519771D01*
X235250000Y-110519771D02*
X235192857Y-110605485D01*
X235192857Y-110605485D02*
X235135714Y-110662628D01*
X235135714Y-110662628D02*
X235078571Y-110691200D01*
X201769771Y-105899999D02*
X201484057Y-106099999D01*
X201769771Y-106242856D02*
X201169771Y-106242856D01*
X201169771Y-106242856D02*
X201169771Y-106014285D01*
X201169771Y-106014285D02*
X201198342Y-105957142D01*
X201198342Y-105957142D02*
X201226914Y-105928571D01*
X201226914Y-105928571D02*
X201284057Y-105899999D01*
X201284057Y-105899999D02*
X201369771Y-105899999D01*
X201369771Y-105899999D02*
X201426914Y-105928571D01*
X201426914Y-105928571D02*
X201455485Y-105957142D01*
X201455485Y-105957142D02*
X201484057Y-106014285D01*
X201484057Y-106014285D02*
X201484057Y-106242856D01*
X201169771Y-105699999D02*
X201169771Y-105328571D01*
X201169771Y-105328571D02*
X201398342Y-105528571D01*
X201398342Y-105528571D02*
X201398342Y-105442856D01*
X201398342Y-105442856D02*
X201426914Y-105385714D01*
X201426914Y-105385714D02*
X201455485Y-105357142D01*
X201455485Y-105357142D02*
X201512628Y-105328571D01*
X201512628Y-105328571D02*
X201655485Y-105328571D01*
X201655485Y-105328571D02*
X201712628Y-105357142D01*
X201712628Y-105357142D02*
X201741200Y-105385714D01*
X201741200Y-105385714D02*
X201769771Y-105442856D01*
X201769771Y-105442856D02*
X201769771Y-105614285D01*
X201769771Y-105614285D02*
X201741200Y-105671428D01*
X201741200Y-105671428D02*
X201712628Y-105699999D01*
X219962628Y-109435714D02*
X219991200Y-109464286D01*
X219991200Y-109464286D02*
X220019771Y-109550000D01*
X220019771Y-109550000D02*
X220019771Y-109607143D01*
X220019771Y-109607143D02*
X219991200Y-109692857D01*
X219991200Y-109692857D02*
X219934057Y-109750000D01*
X219934057Y-109750000D02*
X219876914Y-109778571D01*
X219876914Y-109778571D02*
X219762628Y-109807143D01*
X219762628Y-109807143D02*
X219676914Y-109807143D01*
X219676914Y-109807143D02*
X219562628Y-109778571D01*
X219562628Y-109778571D02*
X219505485Y-109750000D01*
X219505485Y-109750000D02*
X219448342Y-109692857D01*
X219448342Y-109692857D02*
X219419771Y-109607143D01*
X219419771Y-109607143D02*
X219419771Y-109550000D01*
X219419771Y-109550000D02*
X219448342Y-109464286D01*
X219448342Y-109464286D02*
X219476914Y-109435714D01*
X220019771Y-108864286D02*
X220019771Y-109207143D01*
X220019771Y-109035714D02*
X219419771Y-109035714D01*
X219419771Y-109035714D02*
X219505485Y-109092857D01*
X219505485Y-109092857D02*
X219562628Y-109150000D01*
X219562628Y-109150000D02*
X219591200Y-109207143D01*
X220019771Y-108578571D02*
X220019771Y-108464285D01*
X220019771Y-108464285D02*
X219991200Y-108407142D01*
X219991200Y-108407142D02*
X219962628Y-108378571D01*
X219962628Y-108378571D02*
X219876914Y-108321428D01*
X219876914Y-108321428D02*
X219762628Y-108292857D01*
X219762628Y-108292857D02*
X219534057Y-108292857D01*
X219534057Y-108292857D02*
X219476914Y-108321428D01*
X219476914Y-108321428D02*
X219448342Y-108350000D01*
X219448342Y-108350000D02*
X219419771Y-108407142D01*
X219419771Y-108407142D02*
X219419771Y-108521428D01*
X219419771Y-108521428D02*
X219448342Y-108578571D01*
X219448342Y-108578571D02*
X219476914Y-108607142D01*
X219476914Y-108607142D02*
X219534057Y-108635714D01*
X219534057Y-108635714D02*
X219676914Y-108635714D01*
X219676914Y-108635714D02*
X219734057Y-108607142D01*
X219734057Y-108607142D02*
X219762628Y-108578571D01*
X219762628Y-108578571D02*
X219791200Y-108521428D01*
X219791200Y-108521428D02*
X219791200Y-108407142D01*
X219791200Y-108407142D02*
X219762628Y-108350000D01*
X219762628Y-108350000D02*
X219734057Y-108321428D01*
X219734057Y-108321428D02*
X219676914Y-108292857D01*
X219219771Y-105949999D02*
X218934057Y-106149999D01*
X219219771Y-106292856D02*
X218619771Y-106292856D01*
X218619771Y-106292856D02*
X218619771Y-106064285D01*
X218619771Y-106064285D02*
X218648342Y-106007142D01*
X218648342Y-106007142D02*
X218676914Y-105978571D01*
X218676914Y-105978571D02*
X218734057Y-105949999D01*
X218734057Y-105949999D02*
X218819771Y-105949999D01*
X218819771Y-105949999D02*
X218876914Y-105978571D01*
X218876914Y-105978571D02*
X218905485Y-106007142D01*
X218905485Y-106007142D02*
X218934057Y-106064285D01*
X218934057Y-106064285D02*
X218934057Y-106292856D01*
X218619771Y-105435714D02*
X218619771Y-105549999D01*
X218619771Y-105549999D02*
X218648342Y-105607142D01*
X218648342Y-105607142D02*
X218676914Y-105635714D01*
X218676914Y-105635714D02*
X218762628Y-105692856D01*
X218762628Y-105692856D02*
X218876914Y-105721428D01*
X218876914Y-105721428D02*
X219105485Y-105721428D01*
X219105485Y-105721428D02*
X219162628Y-105692856D01*
X219162628Y-105692856D02*
X219191200Y-105664285D01*
X219191200Y-105664285D02*
X219219771Y-105607142D01*
X219219771Y-105607142D02*
X219219771Y-105492856D01*
X219219771Y-105492856D02*
X219191200Y-105435714D01*
X219191200Y-105435714D02*
X219162628Y-105407142D01*
X219162628Y-105407142D02*
X219105485Y-105378571D01*
X219105485Y-105378571D02*
X218962628Y-105378571D01*
X218962628Y-105378571D02*
X218905485Y-105407142D01*
X218905485Y-105407142D02*
X218876914Y-105435714D01*
X218876914Y-105435714D02*
X218848342Y-105492856D01*
X218848342Y-105492856D02*
X218848342Y-105607142D01*
X218848342Y-105607142D02*
X218876914Y-105664285D01*
X218876914Y-105664285D02*
X218905485Y-105692856D01*
X218905485Y-105692856D02*
X218962628Y-105721428D01*
X235718015Y-104113498D02*
X235374563Y-104052889D01*
X235475579Y-104355935D02*
X235051315Y-103931671D01*
X235051315Y-103931671D02*
X235212939Y-103770046D01*
X235212939Y-103770046D02*
X235273548Y-103749843D01*
X235273548Y-103749843D02*
X235313954Y-103749843D01*
X235313954Y-103749843D02*
X235374563Y-103770046D01*
X235374563Y-103770046D02*
X235435173Y-103830655D01*
X235435173Y-103830655D02*
X235455376Y-103891265D01*
X235455376Y-103891265D02*
X235455376Y-103931671D01*
X235455376Y-103931671D02*
X235435173Y-103992280D01*
X235435173Y-103992280D02*
X235273548Y-104153904D01*
X236122076Y-103709437D02*
X235879640Y-103951874D01*
X236000858Y-103830655D02*
X235576594Y-103406391D01*
X235576594Y-103406391D02*
X235596797Y-103507407D01*
X235596797Y-103507407D02*
X235596797Y-103588219D01*
X235596797Y-103588219D02*
X235576594Y-103648828D01*
X236526138Y-103305376D02*
X236283701Y-103547812D01*
X236404919Y-103426594D02*
X235980655Y-103002330D01*
X235980655Y-103002330D02*
X236000858Y-103103345D01*
X236000858Y-103103345D02*
X236000858Y-103184158D01*
X236000858Y-103184158D02*
X235980655Y-103244767D01*
X212012628Y-106899999D02*
X212041200Y-106928571D01*
X212041200Y-106928571D02*
X212069771Y-107014285D01*
X212069771Y-107014285D02*
X212069771Y-107071428D01*
X212069771Y-107071428D02*
X212041200Y-107157142D01*
X212041200Y-107157142D02*
X211984057Y-107214285D01*
X211984057Y-107214285D02*
X211926914Y-107242856D01*
X211926914Y-107242856D02*
X211812628Y-107271428D01*
X211812628Y-107271428D02*
X211726914Y-107271428D01*
X211726914Y-107271428D02*
X211612628Y-107242856D01*
X211612628Y-107242856D02*
X211555485Y-107214285D01*
X211555485Y-107214285D02*
X211498342Y-107157142D01*
X211498342Y-107157142D02*
X211469771Y-107071428D01*
X211469771Y-107071428D02*
X211469771Y-107014285D01*
X211469771Y-107014285D02*
X211498342Y-106928571D01*
X211498342Y-106928571D02*
X211526914Y-106899999D01*
X211669771Y-106385714D02*
X212069771Y-106385714D01*
X211441200Y-106528571D02*
X211869771Y-106671428D01*
X211869771Y-106671428D02*
X211869771Y-106299999D01*
X236368015Y-104863498D02*
X236024563Y-104802889D01*
X236125579Y-105105935D02*
X235701315Y-104681671D01*
X235701315Y-104681671D02*
X235862939Y-104520046D01*
X235862939Y-104520046D02*
X235923548Y-104499843D01*
X235923548Y-104499843D02*
X235963954Y-104499843D01*
X235963954Y-104499843D02*
X236024563Y-104520046D01*
X236024563Y-104520046D02*
X236085173Y-104580655D01*
X236085173Y-104580655D02*
X236105376Y-104641265D01*
X236105376Y-104641265D02*
X236105376Y-104681671D01*
X236105376Y-104681671D02*
X236085173Y-104742280D01*
X236085173Y-104742280D02*
X235923548Y-104903904D01*
X236772076Y-104459437D02*
X236529640Y-104701874D01*
X236650858Y-104580655D02*
X236226594Y-104156391D01*
X236226594Y-104156391D02*
X236246797Y-104257407D01*
X236246797Y-104257407D02*
X236246797Y-104338219D01*
X236246797Y-104338219D02*
X236226594Y-104398828D01*
X236549843Y-103913955D02*
X236549843Y-103873548D01*
X236549843Y-103873548D02*
X236570046Y-103812939D01*
X236570046Y-103812939D02*
X236671061Y-103711924D01*
X236671061Y-103711924D02*
X236731670Y-103691721D01*
X236731670Y-103691721D02*
X236772077Y-103691721D01*
X236772077Y-103691721D02*
X236832686Y-103711924D01*
X236832686Y-103711924D02*
X236873092Y-103752330D01*
X236873092Y-103752330D02*
X236913498Y-103833142D01*
X236913498Y-103833142D02*
X236913498Y-104318016D01*
X236913498Y-104318016D02*
X237176138Y-104055376D01*
X232936476Y-114122102D02*
X232896070Y-114122102D01*
X232896070Y-114122102D02*
X232815258Y-114081696D01*
X232815258Y-114081696D02*
X232774852Y-114041290D01*
X232774852Y-114041290D02*
X232734445Y-113960478D01*
X232734445Y-113960478D02*
X232734445Y-113879666D01*
X232734445Y-113879666D02*
X232754648Y-113819056D01*
X232754648Y-113819056D02*
X232815258Y-113718041D01*
X232815258Y-113718041D02*
X232875867Y-113657432D01*
X232875867Y-113657432D02*
X232976882Y-113596823D01*
X232976882Y-113596823D02*
X233037491Y-113576620D01*
X233037491Y-113576620D02*
X233118303Y-113576620D01*
X233118303Y-113576620D02*
X233199116Y-113617026D01*
X233199116Y-113617026D02*
X233239522Y-113657432D01*
X233239522Y-113657432D02*
X233279928Y-113738244D01*
X233279928Y-113738244D02*
X233279928Y-113778650D01*
X233461755Y-113879666D02*
X233744598Y-114162508D01*
X233744598Y-114162508D02*
X233138506Y-114404945D01*
X200450000Y-109799771D02*
X200250000Y-109514057D01*
X200107143Y-109799771D02*
X200107143Y-109199771D01*
X200107143Y-109199771D02*
X200335714Y-109199771D01*
X200335714Y-109199771D02*
X200392857Y-109228342D01*
X200392857Y-109228342D02*
X200421428Y-109256914D01*
X200421428Y-109256914D02*
X200450000Y-109314057D01*
X200450000Y-109314057D02*
X200450000Y-109399771D01*
X200450000Y-109399771D02*
X200421428Y-109456914D01*
X200421428Y-109456914D02*
X200392857Y-109485485D01*
X200392857Y-109485485D02*
X200335714Y-109514057D01*
X200335714Y-109514057D02*
X200107143Y-109514057D01*
X200678571Y-109256914D02*
X200707143Y-109228342D01*
X200707143Y-109228342D02*
X200764286Y-109199771D01*
X200764286Y-109199771D02*
X200907143Y-109199771D01*
X200907143Y-109199771D02*
X200964286Y-109228342D01*
X200964286Y-109228342D02*
X200992857Y-109256914D01*
X200992857Y-109256914D02*
X201021428Y-109314057D01*
X201021428Y-109314057D02*
X201021428Y-109371200D01*
X201021428Y-109371200D02*
X200992857Y-109456914D01*
X200992857Y-109456914D02*
X200650000Y-109799771D01*
X200650000Y-109799771D02*
X201021428Y-109799771D01*
X221677609Y-115723092D02*
X221677609Y-115763498D01*
X221677609Y-115763498D02*
X221637203Y-115844310D01*
X221637203Y-115844310D02*
X221596797Y-115884717D01*
X221596797Y-115884717D02*
X221515985Y-115925123D01*
X221515985Y-115925123D02*
X221435173Y-115925123D01*
X221435173Y-115925123D02*
X221374563Y-115904920D01*
X221374563Y-115904920D02*
X221273548Y-115844310D01*
X221273548Y-115844310D02*
X221212939Y-115783701D01*
X221212939Y-115783701D02*
X221152330Y-115682686D01*
X221152330Y-115682686D02*
X221132127Y-115622077D01*
X221132127Y-115622077D02*
X221132127Y-115541265D01*
X221132127Y-115541265D02*
X221172533Y-115460452D01*
X221172533Y-115460452D02*
X221212939Y-115420046D01*
X221212939Y-115420046D02*
X221293751Y-115379640D01*
X221293751Y-115379640D02*
X221334157Y-115379640D01*
X222122076Y-115359437D02*
X221879640Y-115601874D01*
X222000858Y-115480655D02*
X221576594Y-115056391D01*
X221576594Y-115056391D02*
X221596797Y-115157407D01*
X221596797Y-115157407D02*
X221596797Y-115238219D01*
X221596797Y-115238219D02*
X221576594Y-115298828D01*
X221960452Y-114672533D02*
X222000858Y-114632127D01*
X222000858Y-114632127D02*
X222061467Y-114611924D01*
X222061467Y-114611924D02*
X222101873Y-114611924D01*
X222101873Y-114611924D02*
X222162483Y-114632127D01*
X222162483Y-114632127D02*
X222263498Y-114692736D01*
X222263498Y-114692736D02*
X222364513Y-114793751D01*
X222364513Y-114793751D02*
X222425122Y-114894767D01*
X222425122Y-114894767D02*
X222445325Y-114955376D01*
X222445325Y-114955376D02*
X222445325Y-114995782D01*
X222445325Y-114995782D02*
X222425122Y-115056391D01*
X222425122Y-115056391D02*
X222384716Y-115096797D01*
X222384716Y-115096797D02*
X222324107Y-115117000D01*
X222324107Y-115117000D02*
X222283701Y-115117000D01*
X222283701Y-115117000D02*
X222223092Y-115096797D01*
X222223092Y-115096797D02*
X222122077Y-115036188D01*
X222122077Y-115036188D02*
X222021061Y-114935173D01*
X222021061Y-114935173D02*
X221960452Y-114834158D01*
X221960452Y-114834158D02*
X221940249Y-114773548D01*
X221940249Y-114773548D02*
X221940249Y-114733142D01*
X221940249Y-114733142D02*
X221960452Y-114672533D01*
X210519771Y-105499999D02*
X210234057Y-105699999D01*
X210519771Y-105842856D02*
X209919771Y-105842856D01*
X209919771Y-105842856D02*
X209919771Y-105614285D01*
X209919771Y-105614285D02*
X209948342Y-105557142D01*
X209948342Y-105557142D02*
X209976914Y-105528571D01*
X209976914Y-105528571D02*
X210034057Y-105499999D01*
X210034057Y-105499999D02*
X210119771Y-105499999D01*
X210119771Y-105499999D02*
X210176914Y-105528571D01*
X210176914Y-105528571D02*
X210205485Y-105557142D01*
X210205485Y-105557142D02*
X210234057Y-105614285D01*
X210234057Y-105614285D02*
X210234057Y-105842856D01*
X210119771Y-104985714D02*
X210519771Y-104985714D01*
X209891200Y-105128571D02*
X210319771Y-105271428D01*
X210319771Y-105271428D02*
X210319771Y-104899999D01*
X214219771Y-106457142D02*
X214705485Y-106457142D01*
X214705485Y-106457142D02*
X214762628Y-106428571D01*
X214762628Y-106428571D02*
X214791200Y-106400000D01*
X214791200Y-106400000D02*
X214819771Y-106342857D01*
X214819771Y-106342857D02*
X214819771Y-106228571D01*
X214819771Y-106228571D02*
X214791200Y-106171428D01*
X214791200Y-106171428D02*
X214762628Y-106142857D01*
X214762628Y-106142857D02*
X214705485Y-106114285D01*
X214705485Y-106114285D02*
X214219771Y-106114285D01*
X214219771Y-105885714D02*
X214219771Y-105514286D01*
X214219771Y-105514286D02*
X214448342Y-105714286D01*
X214448342Y-105714286D02*
X214448342Y-105628571D01*
X214448342Y-105628571D02*
X214476914Y-105571429D01*
X214476914Y-105571429D02*
X214505485Y-105542857D01*
X214505485Y-105542857D02*
X214562628Y-105514286D01*
X214562628Y-105514286D02*
X214705485Y-105514286D01*
X214705485Y-105514286D02*
X214762628Y-105542857D01*
X214762628Y-105542857D02*
X214791200Y-105571429D01*
X214791200Y-105571429D02*
X214819771Y-105628571D01*
X214819771Y-105628571D02*
X214819771Y-105800000D01*
X214819771Y-105800000D02*
X214791200Y-105857143D01*
X214791200Y-105857143D02*
X214762628Y-105885714D01*
X226229640Y-103971061D02*
X226229640Y-104011467D01*
X226229640Y-104011467D02*
X226189234Y-104092279D01*
X226189234Y-104092279D02*
X226148828Y-104132685D01*
X226148828Y-104132685D02*
X226068016Y-104173092D01*
X226068016Y-104173092D02*
X225987204Y-104173092D01*
X225987204Y-104173092D02*
X225926594Y-104152889D01*
X225926594Y-104152889D02*
X225825579Y-104092279D01*
X225825579Y-104092279D02*
X225764970Y-104031670D01*
X225764970Y-104031670D02*
X225704361Y-103930655D01*
X225704361Y-103930655D02*
X225684158Y-103870046D01*
X225684158Y-103870046D02*
X225684158Y-103789234D01*
X225684158Y-103789234D02*
X225724564Y-103708421D01*
X225724564Y-103708421D02*
X225764970Y-103668015D01*
X225764970Y-103668015D02*
X225845782Y-103627609D01*
X225845782Y-103627609D02*
X225886188Y-103627609D01*
X226270046Y-103526594D02*
X226209437Y-103546797D01*
X226209437Y-103546797D02*
X226169031Y-103546797D01*
X226169031Y-103546797D02*
X226108422Y-103526594D01*
X226108422Y-103526594D02*
X226088219Y-103506391D01*
X226088219Y-103506391D02*
X226068016Y-103445782D01*
X226068016Y-103445782D02*
X226068016Y-103405376D01*
X226068016Y-103405376D02*
X226088219Y-103344767D01*
X226088219Y-103344767D02*
X226169031Y-103263954D01*
X226169031Y-103263954D02*
X226229640Y-103243751D01*
X226229640Y-103243751D02*
X226270046Y-103243751D01*
X226270046Y-103243751D02*
X226330655Y-103263954D01*
X226330655Y-103263954D02*
X226350858Y-103284157D01*
X226350858Y-103284157D02*
X226371061Y-103344767D01*
X226371061Y-103344767D02*
X226371061Y-103385173D01*
X226371061Y-103385173D02*
X226350858Y-103445782D01*
X226350858Y-103445782D02*
X226270046Y-103526594D01*
X226270046Y-103526594D02*
X226249843Y-103587203D01*
X226249843Y-103587203D02*
X226249843Y-103627609D01*
X226249843Y-103627609D02*
X226270046Y-103688218D01*
X226270046Y-103688218D02*
X226350858Y-103769031D01*
X226350858Y-103769031D02*
X226411468Y-103789234D01*
X226411468Y-103789234D02*
X226451874Y-103789234D01*
X226451874Y-103789234D02*
X226512483Y-103769031D01*
X226512483Y-103769031D02*
X226593295Y-103688218D01*
X226593295Y-103688218D02*
X226613498Y-103627609D01*
X226613498Y-103627609D02*
X226613498Y-103587203D01*
X226613498Y-103587203D02*
X226593295Y-103526594D01*
X226593295Y-103526594D02*
X226512483Y-103445782D01*
X226512483Y-103445782D02*
X226451874Y-103425579D01*
X226451874Y-103425579D02*
X226411468Y-103425579D01*
X226411468Y-103425579D02*
X226350858Y-103445782D01*
D11*
%TO.C,Y1*%
X218197811Y-101937761D02*
X220743396Y-99392176D01*
X218572578Y-102312527D02*
X218197811Y-101937761D01*
X220368629Y-104108579D02*
X219845370Y-103585320D01*
X220743396Y-99392176D02*
X221118162Y-99766943D01*
X222016188Y-105756138D02*
X221641422Y-105381371D01*
X222390955Y-101039735D02*
X222914214Y-101562994D01*
X222914214Y-101562994D02*
X223083919Y-101393289D01*
X224187006Y-102835787D02*
X224561773Y-103210553D01*
X224356712Y-102666081D02*
X224187006Y-102835787D01*
X224561773Y-103210553D02*
X222016188Y-105756138D01*
D12*
%TO.C,U6*%
X235683800Y-106779100D02*
X235683800Y-111020900D01*
X240916200Y-111020900D02*
X240916200Y-106779100D01*
D11*
%TO.C,F1*%
X194490000Y-112162780D02*
X194490000Y-111837220D01*
X195510000Y-112162780D02*
X195510000Y-111837220D01*
%TO.C,J1*%
X187650000Y-102855000D02*
X186600000Y-102855000D01*
X187650000Y-115145000D02*
X186600000Y-115145000D01*
X190820000Y-113400000D02*
X190820000Y-104600000D01*
X190820000Y-113400000D02*
X191575000Y-113400000D01*
%TO.C,U5*%
X219810303Y-111163856D02*
X220199212Y-110774947D01*
X220199212Y-111552765D02*
X219810303Y-111163856D01*
X226704594Y-118058147D02*
X227093503Y-118447056D01*
X227093503Y-103880656D02*
X226704594Y-104269565D01*
X227482412Y-104269565D02*
X227093503Y-103880656D01*
X227482412Y-118058147D02*
X227093503Y-118447056D01*
X233987794Y-110774947D02*
X234376703Y-111163856D01*
X234376703Y-111163856D02*
X233987794Y-111552765D01*
D10*
X227393503Y-116820710D02*
G75*
G02*
X226793503Y-116820710I-300000J0D01*
G01*
X226793503Y-116820710D02*
G75*
G02*
X227393503Y-116820710I300000J0D01*
G01*
D11*
%TO.C,U1*%
X197740000Y-105942500D02*
X197740001Y-105142500D01*
X197740000Y-105942500D02*
X197740001Y-106742500D01*
X200860002Y-105942500D02*
X200860001Y-105142500D01*
X200860002Y-105942500D02*
X200860001Y-106742500D01*
X201140001Y-104882500D02*
X200810001Y-104642500D01*
X201140001Y-104402500D01*
X201140001Y-104882500D01*
G36*
X201140001Y-104882500D02*
G01*
X200810001Y-104642500D01*
X201140001Y-104402500D01*
X201140001Y-104882500D01*
G37*
%TO.C,U2*%
X206440000Y-105962500D02*
X206440001Y-105162500D01*
X206440000Y-105962500D02*
X206440001Y-106762500D01*
X209560002Y-105962500D02*
X209560001Y-105162500D01*
X209560002Y-105962500D02*
X209560001Y-106762500D01*
X209840001Y-104902500D02*
X209510001Y-104662500D01*
X209840001Y-104422500D01*
X209840001Y-104902500D01*
G36*
X209840001Y-104902500D02*
G01*
X209510001Y-104662500D01*
X209840001Y-104422500D01*
X209840001Y-104902500D01*
G37*
%TO.C,U3*%
X215169999Y-106008190D02*
X215170000Y-105208190D01*
X215169999Y-106008190D02*
X215170000Y-106808190D01*
X218290001Y-106008190D02*
X218290000Y-105208190D01*
X218290001Y-106008190D02*
X218290000Y-106808190D01*
X218570000Y-104948190D02*
X218240000Y-104708190D01*
X218570000Y-104468190D01*
X218570000Y-104948190D01*
G36*
X218570000Y-104948190D02*
G01*
X218240000Y-104708190D01*
X218570000Y-104468190D01*
X218570000Y-104948190D01*
G37*
%TD*%
%LPC*%
D13*
%TO.C,Y1*%
X223055635Y-102694365D03*
X221259584Y-100898314D03*
X219703949Y-102453949D03*
X221500000Y-104250000D03*
%TD*%
D14*
%TO.C,C1*%
X198315002Y-108480000D03*
X197675002Y-108480000D03*
%TD*%
D15*
%TO.C,C14*%
X221000000Y-113600000D03*
X220547452Y-114052548D03*
%TD*%
D16*
%TO.C,L1*%
X198350000Y-103400000D03*
X198350000Y-102760000D03*
%TD*%
D17*
%TO.C,C12*%
X234273726Y-112473726D03*
X234726274Y-112926274D03*
%TD*%
D16*
%TO.C,C2*%
X202250000Y-107500000D03*
X202250000Y-106860000D03*
%TD*%
D18*
%TO.C,C15*%
X232980000Y-108400000D03*
X233620000Y-108400000D03*
%TD*%
D19*
%TO.C,U6*%
X240204999Y-106175850D03*
X238935000Y-106175850D03*
X237665000Y-106175850D03*
X236395001Y-106175850D03*
X236395001Y-111624150D03*
X237665000Y-111624150D03*
X238935000Y-111624150D03*
X240204999Y-111624150D03*
%TD*%
D20*
%TO.C,F1*%
X195000000Y-112787501D03*
X195000000Y-111212499D03*
%TD*%
D16*
%TO.C,L2*%
X207050000Y-103500000D03*
X207050000Y-102860000D03*
%TD*%
D21*
%TO.C,C9*%
X218973726Y-112426274D03*
X219426274Y-111973726D03*
%TD*%
D16*
%TO.C,L3*%
X215830000Y-103528190D03*
X215830000Y-102888190D03*
%TD*%
D14*
%TO.C,C3*%
X207070000Y-108500000D03*
X206430000Y-108500000D03*
%TD*%
%TO.C,C5*%
X215750000Y-108508190D03*
X215110000Y-108508190D03*
%TD*%
D22*
%TO.C,J1*%
X189700000Y-111300000D03*
X189700000Y-106700000D03*
D23*
X192450000Y-112500000D03*
X192450000Y-110000000D03*
X192450000Y-108000000D03*
X192450000Y-105500000D03*
D24*
X189700000Y-114700000D03*
X189700000Y-103300000D03*
%TD*%
D21*
%TO.C,C13*%
X230673726Y-106326274D03*
X231126274Y-105873726D03*
%TD*%
%TO.C,C16*%
X231773726Y-106426274D03*
X232226274Y-105973726D03*
%TD*%
D25*
%TO.C,U5*%
X227588478Y-117598528D03*
X227871320Y-117315685D03*
X228154163Y-117032842D03*
X228437006Y-116750000D03*
X228719849Y-116467157D03*
X229002691Y-116184314D03*
X229285534Y-115901471D03*
X229568377Y-115618629D03*
X229851219Y-115335786D03*
X230134062Y-115052943D03*
X230416905Y-114770101D03*
X230699748Y-114487258D03*
X230982590Y-114204415D03*
X231265433Y-113921572D03*
X231548276Y-113638730D03*
X231831118Y-113355887D03*
X232113961Y-113073044D03*
X232396804Y-112790202D03*
X232679647Y-112507359D03*
X232962489Y-112224516D03*
X233245332Y-111941673D03*
X233528175Y-111658831D03*
D26*
X233528175Y-110668881D03*
X233245332Y-110386039D03*
X232962489Y-110103196D03*
X232679647Y-109820353D03*
X232396804Y-109537510D03*
X232113961Y-109254668D03*
X231831118Y-108971825D03*
X231548276Y-108688982D03*
X231265433Y-108406140D03*
X230982590Y-108123297D03*
X230699748Y-107840454D03*
X230416905Y-107557611D03*
X230134062Y-107274769D03*
X229851219Y-106991926D03*
X229568377Y-106709083D03*
X229285534Y-106426241D03*
X229002691Y-106143398D03*
X228719849Y-105860555D03*
X228437006Y-105577712D03*
X228154163Y-105294870D03*
X227871320Y-105012027D03*
X227588478Y-104729184D03*
D25*
X226598528Y-104729184D03*
X226315686Y-105012027D03*
X226032843Y-105294870D03*
X225750000Y-105577712D03*
X225467157Y-105860555D03*
X225184315Y-106143398D03*
X224901472Y-106426241D03*
X224618629Y-106709083D03*
X224335787Y-106991926D03*
X224052944Y-107274769D03*
X223770101Y-107557611D03*
X223487258Y-107840454D03*
X223204416Y-108123297D03*
X222921573Y-108406140D03*
X222638730Y-108688982D03*
X222355888Y-108971825D03*
X222073045Y-109254668D03*
X221790202Y-109537510D03*
X221507359Y-109820353D03*
X221224517Y-110103196D03*
X220941674Y-110386039D03*
X220658831Y-110668881D03*
D26*
X220658831Y-111658831D03*
X220941674Y-111941673D03*
X221224517Y-112224516D03*
X221507359Y-112507359D03*
X221790202Y-112790202D03*
X222073045Y-113073044D03*
X222355888Y-113355887D03*
X222638730Y-113638730D03*
X222921573Y-113921572D03*
X223204416Y-114204415D03*
X223487258Y-114487258D03*
X223770101Y-114770101D03*
X224052944Y-115052943D03*
X224335787Y-115335786D03*
X224618629Y-115618629D03*
X224901472Y-115901471D03*
X225184315Y-116184314D03*
X225467157Y-116467157D03*
X225750000Y-116750000D03*
X226032843Y-117032842D03*
X226315686Y-117315685D03*
X226598528Y-117598528D03*
D27*
X227093503Y-111163856D03*
%TD*%
D28*
%TO.C,C6*%
X229926274Y-117726274D03*
X229473726Y-117273726D03*
%TD*%
D29*
%TO.C,U1*%
X200250000Y-104805000D03*
X199300001Y-104805000D03*
X198350002Y-104805000D03*
X198350002Y-107080000D03*
X200250000Y-107080000D03*
%TD*%
D14*
%TO.C,R5*%
X209570000Y-108500000D03*
X208930000Y-108500000D03*
%TD*%
D21*
%TO.C,C11*%
X223147452Y-116552548D03*
X223600000Y-116100000D03*
%TD*%
%TO.C,C18*%
X224873726Y-102626274D03*
X225326274Y-102173726D03*
%TD*%
D15*
%TO.C,C17*%
X223426274Y-105173726D03*
X222973726Y-105626274D03*
%TD*%
D14*
%TO.C,R7*%
X218350000Y-108508190D03*
X217710000Y-108508190D03*
%TD*%
D29*
%TO.C,U2*%
X208950000Y-104825000D03*
X208000001Y-104825000D03*
X207050002Y-104825000D03*
X207050002Y-107100000D03*
X208950000Y-107100000D03*
%TD*%
D30*
%TO.C,R1*%
X235100000Y-109280000D03*
X235100000Y-109920000D03*
%TD*%
%TO.C,R3*%
X201450000Y-106860000D03*
X201450000Y-107500000D03*
%TD*%
D16*
%TO.C,C19*%
X219730000Y-107528190D03*
X219730000Y-106888190D03*
%TD*%
D30*
%TO.C,R6*%
X218930000Y-106888190D03*
X218930000Y-107528190D03*
%TD*%
D15*
%TO.C,R11*%
X232226274Y-106973726D03*
X231773726Y-107426274D03*
%TD*%
D16*
%TO.C,C4*%
X210950000Y-107120000D03*
X210950000Y-106480000D03*
%TD*%
D21*
%TO.C,R12*%
X232873726Y-107426274D03*
X233326274Y-106973726D03*
%TD*%
D28*
%TO.C,C7*%
X234126274Y-113526274D03*
X233673726Y-113073726D03*
%TD*%
D14*
%TO.C,R2*%
X200870000Y-108480000D03*
X200230000Y-108480000D03*
%TD*%
D21*
%TO.C,C10*%
X221173726Y-114626274D03*
X221626274Y-114173726D03*
%TD*%
D30*
%TO.C,R4*%
X210150000Y-106480000D03*
X210150000Y-107120000D03*
%TD*%
D29*
%TO.C,U3*%
X217679999Y-104870690D03*
X216730000Y-104870690D03*
X215780001Y-104870690D03*
X215780001Y-107145690D03*
X217679999Y-107145690D03*
%TD*%
D15*
%TO.C,C8*%
X225326274Y-104573726D03*
X224873726Y-105026274D03*
%TD*%
%LPD*%
M02*
