%TF.GenerationSoftware,KiCad,Pcbnew,8.0.3*%
%TF.CreationDate,2024-09-04T14:49:45-07:00*%
%TF.ProjectId,BusinessCard,42757369-6e65-4737-9343-6172642e6b69,rev?*%
%TF.SameCoordinates,Original*%
%TF.FileFunction,Paste,Top*%
%TF.FilePolarity,Positive*%
%FSLAX46Y46*%
G04 Gerber Fmt 4.6, Leading zero omitted, Abs format (unit mm)*
G04 Created by KiCad (PCBNEW 8.0.3) date 2024-09-04 14:49:45*
%MOMM*%
%LPD*%
G01*
G04 APERTURE LIST*
G04 Aperture macros list*
%AMRoundRect*
0 Rectangle with rounded corners*
0 $1 Rounding radius*
0 $2 $3 $4 $5 $6 $7 $8 $9 X,Y pos of 4 corners*
0 Add a 4 corners polygon primitive as box body*
4,1,4,$2,$3,$4,$5,$6,$7,$8,$9,$2,$3,0*
0 Add four circle primitives for the rounded corners*
1,1,$1+$1,$2,$3*
1,1,$1+$1,$4,$5*
1,1,$1+$1,$6,$7*
1,1,$1+$1,$8,$9*
0 Add four rect primitives between the rounded corners*
20,1,$1+$1,$2,$3,$4,$5,0*
20,1,$1+$1,$4,$5,$6,$7,0*
20,1,$1+$1,$6,$7,$8,$9,0*
20,1,$1+$1,$8,$9,$2,$3,0*%
%AMHorizOval*
0 Thick line with rounded ends*
0 $1 width*
0 $2 $3 position (X,Y) of the first rounded end (center of the circle)*
0 $4 $5 position (X,Y) of the second rounded end (center of the circle)*
0 Add line between two ends*
20,1,$1,$2,$3,$4,$5,0*
0 Add two circle primitives to create the rounded ends*
1,1,$1,$2,$3*
1,1,$1,$4,$5*%
%AMRotRect*
0 Rectangle, with rotation*
0 The origin of the aperture is its center*
0 $1 length*
0 $2 width*
0 $3 Rotation angle, in degrees counterclockwise*
0 Add horizontal line*
21,1,$1,$2,0,0,$3*%
G04 Aperture macros list end*
%ADD10RotRect,1.400000X1.200000X135.000000*%
%ADD11RoundRect,0.079500X0.079500X0.100500X-0.079500X0.100500X-0.079500X-0.100500X0.079500X-0.100500X0*%
%ADD12RoundRect,0.079500X-0.014849X0.127279X-0.127279X0.014849X0.014849X-0.127279X0.127279X-0.014849X0*%
%ADD13RoundRect,0.079500X0.100500X-0.079500X0.100500X0.079500X-0.100500X0.079500X-0.100500X-0.079500X0*%
%ADD14RoundRect,0.079500X-0.127279X-0.014849X-0.014849X-0.127279X0.127279X0.014849X0.014849X0.127279X0*%
%ADD15RoundRect,0.079500X-0.079500X-0.100500X0.079500X-0.100500X0.079500X0.100500X-0.079500X0.100500X0*%
%ADD16R,0.558800X1.460500*%
%ADD17RoundRect,0.218750X0.256250X-0.218750X0.256250X0.218750X-0.256250X0.218750X-0.256250X-0.218750X0*%
%ADD18RoundRect,0.079500X0.014849X-0.127279X0.127279X-0.014849X-0.014849X0.127279X-0.127279X0.014849X0*%
%ADD19R,2.500000X1.100000*%
%ADD20HorizOval,0.200000X-0.212132X0.212132X0.212132X-0.212132X0*%
%ADD21HorizOval,0.200000X0.212132X0.212132X-0.212132X-0.212132X0*%
%ADD22RotRect,3.420000X3.420000X135.000000*%
%ADD23RoundRect,0.079500X0.127279X0.014849X0.014849X0.127279X-0.127279X-0.014849X-0.014849X-0.127279X0*%
%ADD24RoundRect,0.150000X-0.150000X0.512500X-0.150000X-0.512500X0.150000X-0.512500X0.150000X0.512500X0*%
%ADD25RoundRect,0.079500X-0.100500X0.079500X-0.100500X-0.079500X0.100500X-0.079500X0.100500X0.079500X0*%
G04 APERTURE END LIST*
D10*
%TO.C,Y1*%
X223055635Y-102694365D03*
X221259584Y-100898314D03*
X219703949Y-102453949D03*
X221500000Y-104250000D03*
%TD*%
D11*
%TO.C,C1*%
X198340002Y-108480000D03*
X197650002Y-108480000D03*
%TD*%
D12*
%TO.C,C14*%
X221017678Y-113582322D03*
X220529774Y-114070226D03*
%TD*%
D13*
%TO.C,L1*%
X198350000Y-103425000D03*
X198350000Y-102735000D03*
%TD*%
D14*
%TO.C,C12*%
X234256048Y-112456048D03*
X234743952Y-112943952D03*
%TD*%
D13*
%TO.C,C2*%
X202250000Y-107525000D03*
X202250000Y-106835000D03*
%TD*%
D15*
%TO.C,C15*%
X232955000Y-108400000D03*
X233645000Y-108400000D03*
%TD*%
D16*
%TO.C,U6*%
X240204999Y-106175850D03*
X238935000Y-106175850D03*
X237665000Y-106175850D03*
X236395001Y-106175850D03*
X236395001Y-111624150D03*
X237665000Y-111624150D03*
X238935000Y-111624150D03*
X240204999Y-111624150D03*
%TD*%
D17*
%TO.C,F1*%
X195000000Y-112787501D03*
X195000000Y-111212499D03*
%TD*%
D13*
%TO.C,L2*%
X207050000Y-103525000D03*
X207050000Y-102835000D03*
%TD*%
D18*
%TO.C,C9*%
X218956048Y-112443952D03*
X219443952Y-111956048D03*
%TD*%
D13*
%TO.C,L3*%
X215830000Y-103553190D03*
X215830000Y-102863190D03*
%TD*%
D11*
%TO.C,C3*%
X207095000Y-108500000D03*
X206405000Y-108500000D03*
%TD*%
%TO.C,C5*%
X215775000Y-108508190D03*
X215085000Y-108508190D03*
%TD*%
D19*
%TO.C,J1*%
X192450000Y-112500000D03*
X192450000Y-110000000D03*
X192450000Y-108000000D03*
X192450000Y-105500000D03*
%TD*%
D18*
%TO.C,C13*%
X230656048Y-106343952D03*
X231143952Y-105856048D03*
%TD*%
%TO.C,C16*%
X231756048Y-106443952D03*
X232243952Y-105956048D03*
%TD*%
D20*
%TO.C,U5*%
X227588478Y-117598528D03*
X227871320Y-117315685D03*
X228154163Y-117032842D03*
X228437006Y-116750000D03*
X228719849Y-116467157D03*
X229002691Y-116184314D03*
X229285534Y-115901471D03*
X229568377Y-115618629D03*
X229851219Y-115335786D03*
X230134062Y-115052943D03*
X230416905Y-114770101D03*
X230699748Y-114487258D03*
X230982590Y-114204415D03*
X231265433Y-113921572D03*
X231548276Y-113638730D03*
X231831118Y-113355887D03*
X232113961Y-113073044D03*
X232396804Y-112790202D03*
X232679647Y-112507359D03*
X232962489Y-112224516D03*
X233245332Y-111941673D03*
X233528175Y-111658831D03*
D21*
X233528175Y-110668881D03*
X233245332Y-110386039D03*
X232962489Y-110103196D03*
X232679647Y-109820353D03*
X232396804Y-109537510D03*
X232113961Y-109254668D03*
X231831118Y-108971825D03*
X231548276Y-108688982D03*
X231265433Y-108406140D03*
X230982590Y-108123297D03*
X230699748Y-107840454D03*
X230416905Y-107557611D03*
X230134062Y-107274769D03*
X229851219Y-106991926D03*
X229568377Y-106709083D03*
X229285534Y-106426241D03*
X229002691Y-106143398D03*
X228719849Y-105860555D03*
X228437006Y-105577712D03*
X228154163Y-105294870D03*
X227871320Y-105012027D03*
X227588478Y-104729184D03*
D20*
X226598528Y-104729184D03*
X226315686Y-105012027D03*
X226032843Y-105294870D03*
X225750000Y-105577712D03*
X225467157Y-105860555D03*
X225184315Y-106143398D03*
X224901472Y-106426241D03*
X224618629Y-106709083D03*
X224335787Y-106991926D03*
X224052944Y-107274769D03*
X223770101Y-107557611D03*
X223487258Y-107840454D03*
X223204416Y-108123297D03*
X222921573Y-108406140D03*
X222638730Y-108688982D03*
X222355888Y-108971825D03*
X222073045Y-109254668D03*
X221790202Y-109537510D03*
X221507359Y-109820353D03*
X221224517Y-110103196D03*
X220941674Y-110386039D03*
X220658831Y-110668881D03*
D21*
X220658831Y-111658831D03*
X220941674Y-111941673D03*
X221224517Y-112224516D03*
X221507359Y-112507359D03*
X221790202Y-112790202D03*
X222073045Y-113073044D03*
X222355888Y-113355887D03*
X222638730Y-113638730D03*
X222921573Y-113921572D03*
X223204416Y-114204415D03*
X223487258Y-114487258D03*
X223770101Y-114770101D03*
X224052944Y-115052943D03*
X224335787Y-115335786D03*
X224618629Y-115618629D03*
X224901472Y-115901471D03*
X225184315Y-116184314D03*
X225467157Y-116467157D03*
X225750000Y-116750000D03*
X226032843Y-117032842D03*
X226315686Y-117315685D03*
X226598528Y-117598528D03*
D22*
X227093503Y-111163856D03*
%TD*%
D23*
%TO.C,C6*%
X229943952Y-117743952D03*
X229456048Y-117256048D03*
%TD*%
D24*
%TO.C,U1*%
X200250000Y-104805000D03*
X199300001Y-104805000D03*
X198350002Y-104805000D03*
X198350002Y-107080000D03*
X200250000Y-107080000D03*
%TD*%
D11*
%TO.C,R5*%
X209595000Y-108500000D03*
X208905000Y-108500000D03*
%TD*%
D18*
%TO.C,C11*%
X223129774Y-116570226D03*
X223617678Y-116082322D03*
%TD*%
%TO.C,C18*%
X224856048Y-102643952D03*
X225343952Y-102156048D03*
%TD*%
D12*
%TO.C,C17*%
X223443952Y-105156048D03*
X222956048Y-105643952D03*
%TD*%
D11*
%TO.C,R7*%
X218375000Y-108508190D03*
X217685000Y-108508190D03*
%TD*%
D24*
%TO.C,U2*%
X208950000Y-104825000D03*
X208000001Y-104825000D03*
X207050002Y-104825000D03*
X207050002Y-107100000D03*
X208950000Y-107100000D03*
%TD*%
D25*
%TO.C,R1*%
X235100000Y-109255000D03*
X235100000Y-109945000D03*
%TD*%
%TO.C,R3*%
X201450000Y-106835000D03*
X201450000Y-107525000D03*
%TD*%
D13*
%TO.C,C19*%
X219730000Y-107553190D03*
X219730000Y-106863190D03*
%TD*%
D25*
%TO.C,R6*%
X218930000Y-106863190D03*
X218930000Y-107553190D03*
%TD*%
D12*
%TO.C,R11*%
X232243952Y-106956048D03*
X231756048Y-107443952D03*
%TD*%
D13*
%TO.C,C4*%
X210950000Y-107145000D03*
X210950000Y-106455000D03*
%TD*%
D18*
%TO.C,R12*%
X232856048Y-107443952D03*
X233343952Y-106956048D03*
%TD*%
D23*
%TO.C,C7*%
X234143952Y-113543952D03*
X233656048Y-113056048D03*
%TD*%
D11*
%TO.C,R2*%
X200895000Y-108480000D03*
X200205000Y-108480000D03*
%TD*%
D18*
%TO.C,C10*%
X221156048Y-114643952D03*
X221643952Y-114156048D03*
%TD*%
D25*
%TO.C,R4*%
X210150000Y-106455000D03*
X210150000Y-107145000D03*
%TD*%
D24*
%TO.C,U3*%
X217679999Y-104870690D03*
X216730000Y-104870690D03*
X215780001Y-104870690D03*
X215780001Y-107145690D03*
X217679999Y-107145690D03*
%TD*%
D12*
%TO.C,C8*%
X225343952Y-104556048D03*
X224856048Y-105043952D03*
%TD*%
M02*
